<svg width="21" height="20" viewBox="0 0 21 20" fill="none" xmlns="http://www.w3.org/2000/svg">
<path fill-rule="evenodd" clip-rule="evenodd" d="M2.00533 9.0399C1.33581 9.70941 1.33581 10.7949 2.00533 11.4644L3.63358 13.0927V15.3956C3.63358 16.3424 4.40114 17.11 5.34798 17.11H7.65087L9.27892 18.738C9.94844 19.4075 11.0339 19.4075 11.7035 18.738L13.3315 17.11H15.6344C16.5812 17.11 17.3488 16.3424 17.3488 15.3956V13.0927L18.9771 11.4644C19.6466 10.7949 19.6466 9.70941 18.9771 9.0399L17.3488 7.41164V5.10914C17.3488 4.1623 16.5812 3.39474 15.6344 3.39474H13.3319L11.7035 1.7663C11.0339 1.09678 9.94844 1.09678 9.27892 1.7663L7.65048 3.39474H5.34798C4.40114 3.39474 3.63358 4.1623 3.63358 5.10914V7.41165L2.00533 9.0399Z" fill="#A272EB"/>
<path d="M13.92 8.19482L10.1483 11.9665L8.43389 10.2521" stroke="black" stroke-width="1.02864" stroke-linecap="round" stroke-linejoin="round"/>
</svg>
