<svg width="94" height="67" viewBox="0 0 94 67" fill="none" xmlns="http://www.w3.org/2000/svg">
<path d="M8.05046 24.7438C7.46021 24.2384 7.70043 23.2761 8.45894 23.1074L47.6971 14.3793C48.3812 14.2271 48.9863 14.848 48.8166 15.5279L40.1119 50.4002C39.9421 51.0802 39.1163 51.3439 38.5839 50.8881L8.05046 24.7438Z" fill="#FFF500" stroke="black" stroke-width="0.857097"/>
<path d="M33.8 22.2955C33.8 22.2955 46.416 14.9322 54.5656 16.9665C62.7151 19.0007 81.7941 48.404 88.9338 35.7044" stroke="black" stroke-width="1.71419"/>
<path d="M33.0053 31.3018C33.0053 31.3018 45.6212 23.9386 53.7708 25.9728C61.9203 28.0071 80.9993 57.4104 88.139 44.7107" stroke="black" stroke-width="1.71419"/>
<path d="M30.7286 40.4224C30.7286 40.4224 43.3446 33.0592 51.4941 35.0934C59.6437 37.1277 78.7227 66.531 85.8623 53.8313" stroke="black" stroke-width="1.71419"/>
</svg>
