<svg width="20" height="20" viewBox="0 0 20 20" fill="none" xmlns="http://www.w3.org/2000/svg">
<g clip-path="url(#clip0_67_25)">
<path d="M13.3333 2.5H0.833332V13.3333H13.3333V2.5Z" stroke="white" stroke-width="2" stroke-linecap="round" stroke-linejoin="round"/>
<path d="M13.3333 6.6665H16.6667L19.1667 9.1665V13.3332H13.3333V6.6665Z" stroke="white" stroke-width="2" stroke-linecap="round" stroke-linejoin="round"/>
<path d="M4.58333 17.5002C5.73393 17.5002 6.66667 16.5674 6.66667 15.4168C6.66667 14.2662 5.73393 13.3335 4.58333 13.3335C3.43274 13.3335 2.5 14.2662 2.5 15.4168C2.5 16.5674 3.43274 17.5002 4.58333 17.5002Z" stroke="white" stroke-width="2" stroke-linecap="round" stroke-linejoin="round"/>
<path d="M15.4167 17.5002C16.5673 17.5002 17.5 16.5674 17.5 15.4168C17.5 14.2662 16.5673 13.3335 15.4167 13.3335C14.2661 13.3335 13.3333 14.2662 13.3333 15.4168C13.3333 16.5674 14.2661 17.5002 15.4167 17.5002Z" stroke="white" stroke-width="2" stroke-linecap="round" stroke-linejoin="round"/>
</g>
<defs>
<clipPath id="clip0_67_25">
<rect width="20" height="20" fill="white"/>
</clipPath>
</defs>
</svg>
